<svg width="22" height="23" viewBox="0 0 22 23" fill="none" xmlns="http://www.w3.org/2000/svg">
<path d="M15.4724 17.9143C15.1354 17.5793 14.5912 17.5815 14.257 17.9193L11.8164 20.3856V11.9367C11.8164 11.461 11.4317 11.0754 10.957 11.0754C10.4824 11.0754 10.0977 11.461 10.0977 11.9367V20.2988L7.74297 17.9193C7.40876 17.5816 6.86465 17.5793 6.52764 17.9143C6.19068 18.2493 6.1884 18.7946 6.52266 19.1324L9.17185 21.8094C9.65976 22.3025 10.309 23 11 23C11.691 23 12.3402 22.3025 12.8282 21.8094L15.4773 19.1324C15.8116 18.7946 15.8093 18.2493 15.4724 17.9143Z" fill="#828282"/>
<path d="M19.8516 6.44464V5.87083C19.8516 2.63365 17.2239 0 13.994 0C12.5875 0 11.2276 0.507144 10.1648 1.42807C9.46172 2.03728 8.91765 2.80105 8.57098 3.64988C8.03808 3.37693 7.44292 3.22994 6.83203 3.22994C4.72334 3.22994 3.00781 4.94935 3.00781 7.06281V7.84609C1.28812 8.23256 0 9.76218 0 11.5847C0 12.6085 0.386676 13.5686 1.08883 14.2881C1.79957 15.0165 2.75576 15.4176 3.78125 15.4176H4.08203C4.55666 15.4176 4.94141 15.032 4.94141 14.5563C4.94141 14.0806 4.55666 13.695 4.08203 13.695H3.78125C2.6247 13.695 1.71875 12.768 1.71875 11.5847C1.71875 10.4211 2.67957 9.4745 3.86057 9.4745H3.86719C4.34182 9.4745 4.72656 9.08889 4.72656 8.61318V7.06281C4.72656 5.89921 5.67106 4.95258 6.83203 4.95258C7.43514 4.95258 8.01054 5.21321 8.41075 5.66764C8.63135 5.91812 8.97656 6.01812 9.29642 5.92427C9.61632 5.83043 9.85321 5.55968 9.90425 5.22954C10.2133 3.23029 11.9715 1.72264 13.9939 1.72264C16.2761 1.72264 18.1328 3.58351 18.1328 5.87083V6.93016C18.1328 7.24885 18.3084 7.54153 18.5893 7.69097C19.6329 8.24613 20.2812 9.32553 20.2812 10.5081C20.2812 12.005 19.2662 13.2827 17.8127 13.6151C17.35 13.721 17.0605 14.1827 17.1661 14.6465C17.2717 15.1103 17.7324 15.4005 18.1951 15.2946C19.2595 15.0511 20.2253 14.4459 20.9145 13.5903C21.6145 12.7214 22 11.6268 22 10.5081C22 8.86585 21.1887 7.35294 19.8516 6.44464Z" fill="#828282"/>
</svg>
